<svg xmlns="http://www.w3.org/2000/svg" viewBox="0 0 755.91 90.17"><defs><style>.cls-1{fill:#fff}</style></defs><g id="Layer_2" data-name="Layer 2"><g id="Capa_1" data-name="Capa 1"><path class="cls-1" d="M68.8 65.85L54 57.24C44.77 62.57 35.76 67.81 26.74 73c-3.91 2.29-7.37 1.9-9.74-1s-2.11-6.26.62-9.6a1.8 1.8 0 00.22-.38V44.14c-3.11 1.88-6 3.37-8.65 5.27A21.39 21.39 0 000 67.11 22.27 22.27 0 0033.45 87c11.65-6.57 23.12-13.41 34.67-20.11.37-.22.77-.39.68-1"/><path class="cls-1" d="M78.72 89.71a22.48 22.48 0 006.9-41.33c-11.35-6.69-22.78-13.25-34.19-19.86-.4-.23-.79-.73-1.36-.3v17.35l10.3 6c5.81 3.37 11.63 6.68 17.41 10.14A6.83 6.83 0 0180.86 70a7 7 0 01-7.53 4.62l-2-.23-15.12 8.8c4.63 2.49 8.45 5.48 13.29 6.48a22.31 22.31 0 009.24 0"/><path class="cls-1" d="M26.63 63.51L41.38 55V23.92c0-4.57 2.2-7.64 5.84-8.3s6.46 1.3 8.16 5.54c.06.16.21.27.42.54l15 8.66v-8.37a22.32 22.32 0 00-44.63.42v38.78c0 .72-.3 1.53.46 2.36m278.45-4.78c-2.42.59-4.88.31-7.32.33h-14.75v-11c7.34.22 14.59-.47 21.8.41 3.2.38 4.72 2.23 4.76 5s-1.33 4.48-4.49 5.25M283 31.42c.55-.69 1.3-.43 2-.43h16a11.55 11.55 0 014.39.66 3.71 3.71 0 012.49 3.89 3.6 3.6 0 01-2.65 3.76 6.92 6.92 0 01-2.05.41h-20.17zm30.33 12.06c3.07-3 4-4.86 4.16-8 .38-6.95-3.22-11.26-10.88-12.21-11-1.36-22-.27-33.08-.65v44.73c10.19 0 20.17.05 30.14 0a20.08 20.08 0 008.15-1.79 12.26 12.26 0 006.33-16.49 12.74 12.74 0 00-4.82-5.57M151 42.17V31c7 .2 13.9-.42 20.76.39 3.36.39 4.68 2.08 4.67 5.2s-1.26 4.64-4.73 5.14c-6.78 1-13.6.18-20.7.49m24.62 7.28c7.54-2.22 11-7 10.41-14.47-.55-7.27-4.18-10.8-12.21-11.89a21 21 0 00-2.61-.28q-14.44-.07-28.89-.1a3.09 3.09 0 00-.86.24v44.28h9.42V50.44h12.64L176 67.31h11.89L174.8 49.84c.41-.18.62-.32.86-.39M537.7 22.8v30.48l-28-30.39H500v44.34h9.19V36l29 31.3h8.54V22.8zm-77.03 36.82a24.07 24.07 0 01-11.41-.62c-6.37-1.94-9.73-6.78-9.75-13.9s3.39-12 9.69-14a26.26 26.26 0 017-1.13c1.56.18 3.14.27 4.68.55 7.74 1.48 12.12 6.7 12.06 14.53 0 8-4.39 13.16-12.27 14.57m6.68-36.31a38 38 0 00-17.92-1.1c-12 1.89-18.85 9.69-19.6 22.33-.63 10.69 5.95 19.79 16.49 22.75a36.46 36.46 0 0010.15 1.2 36 36 0 009.34-1.13c10.09-2.55 16.5-10.76 16.8-21.48.31-11-5.31-19.35-15.26-22.57m-81.49 36.25c-6.53-1.37-10.94-6.3-11.37-12.72-.54-7.93 2.68-13.45 9.15-15.65 8.59-2.93 16.15-.6 21 6.45h9.3c-1.68-7-5.66-11.73-12.23-14.14a34.5 34.5 0 00-18.4-1.21c-9.08 1.68-15.84 6.39-17.87 15.84-2.12 9.87-.47 18.94 8 25.55 8.71 6.82 26 6.4 34.58-.59a18.24 18.24 0 006.53-12.26h-9.35c-3.93 7.64-10.49 10.58-19.34 8.73M252 22.86h-9.22v3c0 8 .08 15.93-.19 23.89-.19 5.63-3.28 8.79-8.79 9.83a26.47 26.47 0 01-9.14.14c-6.69-1.09-9.77-4.61-9.8-11.43V22.81h-9.49c0 9.64-.27 19 .08 28.35.31 8.33 5.3 14 13.35 16.14a39.33 39.33 0 0018.21.42c9.66-2 14.69-7.53 15.14-17.38.41-9 .12-18 .13-27 0-.14-.17-.28-.28-.45m85.93.01h9.15v44.44h-9.15zM568.9 66.78V61.1h5.68v5.68zm48.34.79c-12.82 0-21.14-9.77-21.14-22.78S604.42 22 617.24 22s21.13 9.71 21.13 22.79-8.32 22.78-21.13 22.78zm0-41.14c-10 0-16.18 7.39-16.18 18.36s6.14 18.36 16.18 18.36 16.18-7.47 16.18-18.36-6.21-18.36-16.18-18.36zm72.83 40.35l-10-18.63H665.9v18.63h-4.62v-44H680c8.45 0 14.13 4.82 14.13 12.41 0 6.08-3.7 10.37-9.31 12.15l10.5 19.42zM679.9 27.15h-14V43.8h14.2c5.75 0 9.18-3.37 9.18-8.26 0-5.08-3.7-8.39-9.38-8.39zm72.51 2.98l-3.7 2.77a15.12 15.12 0 00-12.94-6.47c-9.91 0-16 7.39-16 18.29s6.14 18.43 16.18 18.43c8.45 0 14.6-5.42 15.13-14.07h-13.66v-4.36h18.29a16.19 16.19 0 01.2 2.77c0 10.77-7.33 20.08-19.94 20.08-13 0-21.2-9.84-21.2-22.85S723.09 22 735.9 22a19.77 19.77 0 0116.51 8.13z"/></g></g></svg>